<svg id="Capa_1" enable-background="new 0 0 512 512" height="512" viewBox="0 0 512 512" width="512" xmlns="http://www.w3.org/2000/svg"><g><path d="m258.913 112.224 90.768 90.728c3.318 3.316 7.816 5.179 12.507 5.179h129v241.431h-470.375v-241.432h129c4.691 0 9.189-1.863 12.507-5.179l90.768-90.728c1.608-1.608 4.216-1.608 5.825.001z" fill="#eab14d"/><path d="m362.187 208.13c-4.691 0-9.189-1.863-12.507-5.179l-90.767-90.728c-1.609-1.608-4.217-1.608-5.826 0l-90.767 90.728c-3.318 3.316-7.816 5.179-12.507 5.179h-129v22.894h129.041c10.841 0 21.035-4.222 28.698-11.887l70.09-70.09c4.064-4.064 10.653-4.064 14.717 0l70.089 70.089c7.665 7.666 17.858 11.888 28.699 11.888h95.74c5.747 0 10.407 4.659 10.407 10.407v208.13h22.894v-241.431z" fill="#e7a52e"/><path d="m243.491 71.783c6.909-6.909 18.11-6.909 25.018 0l100.965 100.965h121.712l-49.074-132.125c-3.029-8.155-10.811-13.566-19.511-13.566h-333.202c-8.7 0-16.482 5.411-19.511 13.566l-49.075 132.125h121.712z" fill="#5e54ac"/><path d="m442.112 40.623c-3.029-8.155-10.811-13.566-19.511-13.566h-31.22c8.7 0 16.481 5.411 19.511 13.566l49.075 132.125h31.22z" fill="#524798"/><g><path d="m512 197.724c0 5.747-4.659 10.406-10.406 10.406h-139.448c-4.692 0-9.192-1.864-12.509-5.181l-90.723-90.723c-1.609-1.609-4.218-1.609-5.828 0l-90.723 90.723c-3.317 3.318-7.817 5.181-12.509 5.181h-139.447c-5.748 0-10.407-4.659-10.407-10.406v-14.569c0-5.747 4.659-10.406 10.406-10.406h132.119l100.966-100.966c6.909-6.909 18.11-6.909 25.018 0l100.965 100.965h132.119c5.747 0 10.406 4.659 10.406 10.407v14.569z" fill="#e7ecf6"/></g><path d="m501.594 172.748h-35.382c5.747 0 10.406 4.659 10.406 10.406v14.569c0 5.747-4.659 10.406-10.406 10.406h35.382c5.747 0 10.406-4.659 10.406-10.406v-14.569c0-5.747-4.659-10.406-10.406-10.406z" fill="#d8e2f1"/><path d="m352.78 295.44v93.763h104.065v-93.763c0-5.69-4.612-10.302-10.302-10.302h-83.461c-5.689 0-10.302 4.612-10.302 10.302z" fill="#9dc6fb"/><path d="m352.78 389.203v22.999c0 5.69 4.612 10.302 10.302 10.302h83.461c5.69 0 10.302-4.612 10.302-10.302v-22.999z" fill="#aa8080"/><path d="m159.22 295.44v93.763h-104.066v-93.763c0-5.69 4.612-10.302 10.302-10.302h83.461c5.69 0 10.303 4.612 10.303 10.302z" fill="#9dc6fb"/><path d="m159.22 389.203v22.999c0 5.69-4.612 10.302-10.302 10.302h-83.462c-5.69 0-10.302-4.612-10.302-10.302v-22.999z" fill="#aa8080"/><path d="m314.277 295.435v154.125h-116.554v-64.077l5.295-7.726-5.295-7.726v-74.595c0-5.69 4.612-10.302 10.302-10.302h95.951c5.689 0 10.301 4.612 10.301 10.301z" fill="#8b5e5e"/><path d="m231.024 345.559v-20.939c0-3.414 2.767-6.181 6.181-6.181h37.589c3.414 0 6.181 2.767 6.181 6.181v20.939c0 3.414-2.767 6.181-6.181 6.181h-37.589c-3.413 0-6.181-2.768-6.181-6.181z" fill="#9dc6fb"/><circle cx="256" cy="213.333" fill="#9dc6fb" r="33.301"/><path d="m501.698 484.943h-491.396c-5.69 0-10.302-4.612-10.302-10.302v-14.778c0-5.69 4.612-10.302 10.302-10.302h491.396c5.69 0 10.302 4.612 10.302 10.302v14.778c0 5.69-4.612 10.302-10.302 10.302z" fill="#5e54ac"/><path d="m476.618 449.561v35.382h25.08c5.69 0 10.302-4.612 10.302-10.302v-14.778c0-5.69-4.612-10.302-10.302-10.302z" fill="#524798"/><g fill="#80b4fb"><path d="m456.846 329.444h-44.307v-44.306h-15.453v44.306h-44.305v15.453h44.305v44.306h15.453v-44.306h44.307z"/><path d="m159.22 329.444h-.001-44.305v-44.306h-15.453v44.306h-44.307v15.453h44.307v44.306h15.453v-44.306h44.305.001z"/></g><path d="m197.723 370.03h18.732c4.268 0 7.726 3.459 7.726 7.726s-3.459 7.726-7.726 7.726h-18.732z" fill="#ffd064"/></g></svg>