<?xml version="1.0" encoding="iso-8859-1"?>
<!-- Generator: Adobe Illustrator 19.0.0, SVG Export Plug-In . SVG Version: 6.00 Build 0)  -->
<svg version="1.1" id="Capa_1" xmlns="http://www.w3.org/2000/svg" xmlns:xlink="http://www.w3.org/1999/xlink" x="0px" y="0px"
	 viewBox="0 0 512 512" style="enable-background:new 0 0 512 512;" xml:space="preserve">
<g>
	<polygon style="fill:#FEDEBB;" points="453.708,211.304 453.708,475.122 389.846,512 298.932,459.347 298.932,459.555 
		138.551,366.91 58.292,320.415 58.292,112.017 74.344,104.752 74.344,96.726 122.154,75.139 138.205,84.411 138.551,84.549 
		138.551,52.445 154.534,43.382 154.534,36.878 218.396,0 218.465,0 336.086,67.944 336.156,67.944 336.156,92.437 336.086,92.437 
		336.086,92.506 336.156,92.506 362.794,107.866 362.794,134.296 427.001,171.382 427.001,195.875 	"/>
	<polygon style="fill:#D5BFA3;" points="74.344,96.726 74.344,121.219 58.292,112.017 58.292,320.415 138.551,366.91 
		138.551,158.305 138.551,133.743 	"/>
	<polygon style="fill:#928170;" points="453.708,211.304 453.708,475.122 389.846,512 389.846,248.182 	"/>
	<polygon style="fill:#D5BFA3;" points="363.139,232.752 363.139,208.259 298.932,171.174 298.932,195.736 298.932,459.347 
		389.846,512 389.846,248.182 	"/>
	<polygon style="fill:#928170;" points="427.001,171.382 427.001,195.875 363.139,232.752 363.139,208.259 	"/>
	<g>
		<polygon style="fill:#926F66;" points="427.001,171.382 363.139,208.259 298.932,171.174 362.794,134.296 		"/>
		<polygon style="fill:#926F66;" points="453.708,211.304 389.846,248.182 363.139,232.752 427.001,195.875 		"/>
	</g>
	<polygon style="fill:#D5BFA3;" points="154.534,43.382 154.534,61.44 154.465,61.648 138.551,52.445 	"/>
	<polyline style="fill:#926F66;" points="272.225,129.384 336.086,92.506 336.156,92.506 362.794,107.866 298.932,144.744 
		298.794,145.021 	"/>
	<polygon style="fill:#928170;" points="362.794,107.866 362.794,134.296 298.932,171.174 298.932,145.09 298.794,145.021 
		298.932,144.744 	"/>
	<polygon style="fill:#926F66;" points="336.086,67.944 272.225,104.822 154.534,36.878 218.396,0 218.465,0 	"/>
	<polygon style="fill:#928170;" points="336.156,67.944 336.156,92.437 336.086,92.437 336.086,92.506 272.225,129.384 
		272.225,104.822 336.086,67.944 	"/>
	<path style="fill:#D5BFA3;" d="M154.878,43.174l-0.346,0.208"/>
	<g>
		<polygon style="fill:#926F66;" points="138.551,84.549 138.551,133.743 74.344,96.726 122.154,75.139 138.205,84.411 		"/>
		<polygon style="fill:#926F66;" points="74.344,104.752 74.344,121.219 58.292,112.017 		"/>
		<path style="fill:#926F66;" d="M261.545,390.189c-1.835,0.001-3.596-0.728-4.894-2.025c-1.298-1.298-2.026-3.058-2.025-4.894
			v-13.838c0-3.821,3.098-6.919,6.919-6.919c3.821,0,6.919,3.098,6.919,6.919v13.838c0.001,1.835-0.728,3.596-2.025,4.894
			C265.141,389.462,263.38,390.19,261.545,390.189z M261.545,348.676c-1.835,0.001-3.596-0.728-4.894-2.025
			c-1.298-1.298-2.026-3.058-2.025-4.894v-13.838c0-3.821,3.098-6.919,6.919-6.919c3.821,0,6.919,3.098,6.919,6.919v13.838
			c0.001,1.835-0.728,3.596-2.025,4.894C265.141,347.948,263.38,348.677,261.545,348.676z M261.545,307.162
			c-1.835,0.001-3.596-0.728-4.894-2.025c-1.298-1.298-2.026-3.058-2.025-4.894v-13.838c0-3.821,3.098-6.919,6.919-6.919
			c3.821,0,6.919,3.098,6.919,6.919v13.838c0.001,1.835-0.728,3.596-2.025,4.894C265.141,306.435,263.38,307.163,261.545,307.162z
			 M261.545,265.649c-1.835,0.001-3.596-0.728-4.894-2.025c-1.298-1.298-2.026-3.058-2.025-4.894v-13.838
			c0-3.821,3.098-6.919,6.919-6.919c3.821,0,6.919,3.098,6.919,6.919v13.838c0.001,1.835-0.728,3.596-2.025,4.894
			C265.141,264.921,263.38,265.65,261.545,265.649z M261.545,224.135c-1.835,0.001-3.596-0.728-4.894-2.025
			c-1.298-1.298-2.026-3.058-2.025-4.894v-13.838c0-3.821,3.098-6.919,6.919-6.919c3.821,0,6.919,3.098,6.919,6.919v13.838
			c0.001,1.835-0.728,3.596-2.025,4.894S263.38,224.136,261.545,224.135z M261.545,182.622c-1.835,0.001-3.596-0.728-4.894-2.025
			c-1.298-1.298-2.026-3.058-2.025-4.894v-13.838c0-3.821,3.098-6.919,6.919-6.919c3.821,0,6.919,3.098,6.919,6.919v13.838
			c0.001,1.835-0.728,3.596-2.025,4.894C265.141,181.894,263.38,182.623,261.545,182.622z"/>
		<path style="fill:#926F66;" d="M229.45,371.655c-1.835,0.001-3.596-0.728-4.894-2.025c-1.298-1.298-2.026-3.058-2.025-4.894
			v-13.838c0-3.821,3.098-6.919,6.919-6.919c3.821,0,6.919,3.098,6.919,6.919v13.838c0.001,1.835-0.728,3.596-2.025,4.894
			C233.046,370.928,231.285,371.656,229.45,371.655z M229.45,330.142c-1.835,0.001-3.596-0.728-4.894-2.025
			c-1.298-1.298-2.026-3.058-2.025-4.894v-13.838c0-3.821,3.098-6.919,6.919-6.919c3.821,0,6.919,3.098,6.919,6.919v13.838
			c0.001,1.835-0.728,3.596-2.025,4.894C233.046,329.414,231.285,330.143,229.45,330.142z M229.45,288.628
			c-1.835,0.001-3.596-0.728-4.894-2.025c-1.298-1.298-2.026-3.058-2.025-4.894v-13.838c0-3.821,3.098-6.919,6.919-6.919
			c3.821,0,6.919,3.098,6.919,6.919v13.838c0.001,1.835-0.728,3.596-2.025,4.894C233.046,287.901,231.285,288.629,229.45,288.628z
			 M229.45,247.115c-1.835,0.001-3.596-0.728-4.894-2.025c-1.298-1.298-2.026-3.058-2.025-4.894v-13.838
			c0-3.821,3.098-6.919,6.919-6.919c3.821,0,6.919,3.098,6.919,6.919v13.838c0.001,1.835-0.728,3.596-2.025,4.894
			C233.046,246.387,231.285,247.116,229.45,247.115z M229.45,205.601c-1.835,0.001-3.596-0.728-4.894-2.025
			c-1.298-1.298-2.026-3.058-2.025-4.894v-13.838c0-3.821,3.098-6.919,6.919-6.919c3.821,0,6.919,3.098,6.919,6.919v13.838
			c0.001,1.835-0.728,3.596-2.025,4.894C233.046,204.874,231.285,205.602,229.45,205.601z M229.45,164.088
			c-1.835,0.001-3.596-0.728-4.894-2.025c-1.298-1.298-2.026-3.058-2.025-4.894v-13.838c0-3.821,3.098-6.919,6.919-6.919
			c3.821,0,6.919,3.098,6.919,6.919v13.838c0.001,1.835-0.728,3.596-2.025,4.894C233.046,163.36,231.285,164.089,229.45,164.088z"/>
		<path style="fill:#926F66;" d="M197.355,353.128c-1.835,0.001-3.596-0.728-4.894-2.025c-1.298-1.298-2.026-3.058-2.025-4.894
			v-13.838c0-3.821,3.098-6.919,6.919-6.919c3.821,0,6.919,3.098,6.919,6.919v13.838c0.001,1.835-0.728,3.596-2.025,4.894
			S199.191,353.129,197.355,353.128z M197.355,311.615c-1.835,0.001-3.596-0.728-4.894-2.025c-1.298-1.298-2.026-3.058-2.025-4.894
			v-13.838c0-3.821,3.098-6.919,6.919-6.919c3.821,0,6.919,3.098,6.919,6.919v13.838c0.001,1.835-0.728,3.596-2.025,4.894
			S199.191,311.616,197.355,311.615z M197.355,270.101c-1.835,0.001-3.596-0.728-4.894-2.025c-1.298-1.298-2.026-3.058-2.025-4.894
			v-13.838c0-3.821,3.098-6.919,6.919-6.919c3.821,0,6.919,3.098,6.919,6.919v13.838c0.001,1.835-0.728,3.596-2.025,4.894
			S199.191,270.102,197.355,270.101z M197.355,228.588c-1.835,0.001-3.596-0.728-4.894-2.025c-1.298-1.298-2.026-3.058-2.025-4.894
			v-13.838c0-3.821,3.098-6.919,6.919-6.919c3.821,0,6.919,3.098,6.919,6.919v13.838c0.001,1.835-0.728,3.596-2.025,4.894
			C200.951,227.86,199.191,228.589,197.355,228.588z M197.355,187.074c-1.835,0.001-3.596-0.728-4.894-2.025
			c-1.298-1.298-2.026-3.058-2.025-4.894v-13.838c0-3.821,3.098-6.919,6.919-6.919c3.821,0,6.919,3.098,6.919,6.919v13.838
			c0.001,1.835-0.728,3.596-2.025,4.894S199.191,187.075,197.355,187.074z M197.355,145.561c-1.835,0.001-3.596-0.728-4.894-2.025
			c-1.298-1.298-2.026-3.058-2.025-4.894v-13.838c0-3.821,3.098-6.919,6.919-6.919c3.821,0,6.919,3.098,6.919,6.919v13.838
			c0.001,1.835-0.728,3.596-2.025,4.894C200.951,144.833,199.191,145.562,197.355,145.561z"/>
		<path style="fill:#926F66;" d="M165.261,334.601c-1.835,0.001-3.596-0.728-4.894-2.025c-1.298-1.298-2.026-3.058-2.025-4.894
			v-13.838c0-3.821,3.098-6.919,6.919-6.919s6.919,3.098,6.919,6.919v13.838c0.001,1.835-0.728,3.596-2.025,4.894
			C168.857,333.874,167.096,334.602,165.261,334.601z M165.261,293.088c-1.835,0.001-3.596-0.728-4.894-2.025
			c-1.298-1.298-2.026-3.058-2.025-4.894v-13.838c0-3.821,3.098-6.919,6.919-6.919s6.919,3.098,6.919,6.919v13.838
			c0.001,1.835-0.728,3.596-2.025,4.894C168.857,292.36,167.096,293.089,165.261,293.088z M165.261,251.574
			c-1.835,0.001-3.596-0.728-4.894-2.025c-1.298-1.298-2.026-3.058-2.025-4.894v-13.838c0-3.821,3.098-6.919,6.919-6.919
			s6.919,3.098,6.919,6.919v13.838c0.001,1.835-0.728,3.596-2.025,4.894C168.857,250.847,167.096,251.575,165.261,251.574z
			 M165.261,210.061c-1.835,0.001-3.596-0.728-4.894-2.025c-1.298-1.298-2.026-3.058-2.025-4.894v-13.838
			c0-3.821,3.098-6.919,6.919-6.919s6.919,3.098,6.919,6.919v13.838c0.001,1.835-0.728,3.596-2.025,4.894
			C168.857,209.333,167.096,210.062,165.261,210.061z M165.261,168.547c-1.835,0.001-3.596-0.728-4.894-2.025
			c-1.298-1.298-2.026-3.058-2.025-4.894v-13.838c0-3.821,3.098-6.919,6.919-6.919s6.919,3.098,6.919,6.919v13.838
			c0.001,1.835-0.728,3.596-2.025,4.894C168.857,167.82,167.096,168.548,165.261,168.547z M165.261,127.034
			c-1.835,0.001-3.596-0.728-4.894-2.025c-1.298-1.298-2.026-3.058-2.025-4.894v-13.838c0-3.821,3.098-6.919,6.919-6.919
			s6.919,3.098,6.919,6.919v13.838c0.001,1.835-0.728,3.596-2.025,4.894C168.857,126.306,167.096,127.035,165.261,127.034z"/>
		<path style="fill:#926F66;" d="M114.376,312.514c-1.835,0.001-3.596-0.728-4.894-2.025c-1.298-1.298-2.026-3.058-2.025-4.894
			v-13.838c0-3.821,3.098-6.919,6.919-6.919s6.919,3.098,6.919,6.919v13.838c0.001,1.835-0.728,3.596-2.025,4.894
			C117.972,311.786,116.211,312.515,114.376,312.514z M114.376,271c-1.835,0.001-3.596-0.728-4.894-2.025
			c-1.298-1.298-2.026-3.058-2.025-4.894v-13.838c0-3.821,3.098-6.919,6.919-6.919s6.919,3.098,6.919,6.919v13.838
			c0.001,1.835-0.728,3.596-2.025,4.894C117.972,270.273,116.211,271.001,114.376,271z M114.376,229.487
			c-1.835,0.001-3.596-0.728-4.894-2.025c-1.298-1.298-2.026-3.058-2.025-4.894V208.73c0-3.821,3.098-6.919,6.919-6.919
			s6.919,3.098,6.919,6.919v13.838c0.001,1.835-0.728,3.596-2.025,4.894S116.211,229.488,114.376,229.487z M114.376,187.973
			c-1.835,0.001-3.596-0.728-4.894-2.025c-1.298-1.298-2.026-3.058-2.025-4.894v-13.838c0-3.821,3.098-6.919,6.919-6.919
			s6.919,3.098,6.919,6.919v13.838c0.001,1.835-0.728,3.596-2.025,4.894S116.211,187.974,114.376,187.973z"/>
		<path style="fill:#926F66;" d="M82.281,293.98c-1.835,0.001-3.596-0.728-4.894-2.025c-1.298-1.298-2.026-3.058-2.025-4.894
			v-13.838c0-3.821,3.098-6.919,6.919-6.919c3.821,0,6.919,3.098,6.919,6.919v13.838c0.001,1.835-0.728,3.596-2.025,4.894
			C85.877,293.252,84.117,293.981,82.281,293.98z M82.281,252.466c-1.835,0.001-3.596-0.728-4.894-2.025
			c-1.298-1.298-2.026-3.058-2.025-4.894v-13.838c0-3.821,3.098-6.919,6.919-6.919c3.821,0,6.919,3.098,6.919,6.919v13.838
			c0.001,1.835-0.728,3.596-2.025,4.894S84.117,252.467,82.281,252.466z M82.281,210.953c-1.835,0.001-3.596-0.728-4.894-2.025
			c-1.298-1.298-2.026-3.058-2.025-4.894v-13.838c0-3.821,3.098-6.919,6.919-6.919c3.821,0,6.919,3.098,6.919,6.919v13.838
			c0.001,1.835-0.728,3.596-2.025,4.894C85.877,210.225,84.117,210.954,82.281,210.953z M82.281,169.439
			c-1.835,0.001-3.596-0.728-4.894-2.025c-1.298-1.298-2.026-3.058-2.025-4.894v-13.838c0-3.821,3.098-6.919,6.919-6.919
			c3.821,0,6.919,3.098,6.919,6.919v13.838c0.001,1.835-0.728,3.596-2.025,4.894C85.877,168.712,84.117,169.44,82.281,169.439z"/>
		<path style="fill:#926F66;" d="M358.572,477.095c-1.835,0.001-3.596-0.728-4.894-2.025c-1.298-1.298-2.026-3.058-2.025-4.894
			v-7.169c0-3.821,3.098-6.919,6.919-6.919c3.821,0,6.919,3.098,6.919,6.919v7.169c0.001,1.835-0.728,3.596-2.025,4.893
			C362.167,476.367,360.407,477.096,358.572,477.095z M358.572,442.25c-1.835,0.001-3.596-0.728-4.894-2.025
			s-2.026-3.058-2.025-4.894v-13.838c0-3.821,3.098-6.919,6.919-6.919c3.821,0,6.919,3.098,6.919,6.919v13.838
			c0.001,1.835-0.727,3.596-2.025,4.894S360.407,442.251,358.572,442.25L358.572,442.25z M358.572,400.737
			c-1.835,0.001-3.596-0.728-4.894-2.025c-1.298-1.298-2.026-3.058-2.025-4.894V379.98c0-3.821,3.098-6.919,6.919-6.919
			c3.821,0,6.919,3.098,6.919,6.919v13.838c0.001,1.835-0.727,3.596-2.025,4.894S360.407,400.738,358.572,400.737L358.572,400.737z
			 M358.572,359.223c-1.835,0.001-3.596-0.728-4.894-2.025c-1.298-1.298-2.026-3.058-2.025-4.894v-13.838
			c0-3.821,3.098-6.919,6.919-6.919c3.821,0,6.919,3.098,6.919,6.919v13.838c0.001,1.835-0.727,3.596-2.025,4.894
			S360.407,359.224,358.572,359.223L358.572,359.223z M358.572,317.71c-1.835,0.001-3.596-0.728-4.894-2.025
			c-1.298-1.298-2.026-3.058-2.025-4.894v-13.838c0-3.821,3.098-6.919,6.919-6.919c3.821,0,6.919,3.098,6.919,6.919v13.838
			c0.001,1.835-0.727,3.596-2.025,4.894S360.407,317.711,358.572,317.71L358.572,317.71z M358.572,276.196
			c-1.835,0.001-3.596-0.728-4.894-2.025c-1.298-1.298-2.026-3.058-2.025-4.894v-13.838c0-3.821,3.098-6.919,6.919-6.919
			c3.821,0,6.919,3.098,6.919,6.919v13.838c0.001,1.835-0.727,3.596-2.025,4.894S360.407,276.197,358.572,276.196L358.572,276.196z"
			/>
		<path style="fill:#926F66;" d="M326.477,458.561c-1.835,0.001-3.596-0.728-4.894-2.025c-1.298-1.298-2.026-3.058-2.025-4.894
			v-7.169c0-3.821,3.098-6.919,6.919-6.919c3.821,0,6.919,3.098,6.919,6.919v7.169c0.001,1.835-0.728,3.596-2.025,4.894
			C330.073,457.833,328.313,458.562,326.477,458.561z M326.477,423.716c-1.835,0.001-3.596-0.728-4.894-2.025
			c-1.298-1.298-2.026-3.058-2.025-4.894v-13.838c0-3.821,3.098-6.919,6.919-6.919c3.821,0,6.919,3.098,6.919,6.919v13.838
			c0.001,1.835-0.728,3.596-2.025,4.894C330.073,422.989,328.313,423.717,326.477,423.716z M326.477,382.203
			c-1.835,0.001-3.596-0.728-4.894-2.025c-1.298-1.298-2.026-3.058-2.025-4.894v-13.838c0-3.821,3.098-6.919,6.919-6.919
			c3.821,0,6.919,3.098,6.919,6.919v13.838c0.001,1.835-0.728,3.596-2.025,4.894C330.073,381.475,328.313,382.204,326.477,382.203z
			 M326.477,340.689c-1.835,0.001-3.596-0.728-4.894-2.025c-1.298-1.298-2.026-3.058-2.025-4.894v-13.838
			c0-3.821,3.098-6.919,6.919-6.919c3.821,0,6.919,3.098,6.919,6.919v13.838c0.001,1.835-0.728,3.596-2.025,4.894
			C330.073,339.962,328.313,340.69,326.477,340.689z M326.477,299.176c-1.835,0.001-3.596-0.728-4.894-2.025
			c-1.298-1.298-2.026-3.058-2.025-4.894v-13.838c0-3.821,3.098-6.919,6.919-6.919c3.821,0,6.919,3.098,6.919,6.919v13.838
			c0.001,1.835-0.728,3.596-2.025,4.894C330.073,298.448,328.313,299.177,326.477,299.176z M326.477,257.662
			c-1.835,0.001-3.596-0.728-4.894-2.025c-1.298-1.298-2.026-3.058-2.025-4.894v-13.838c0-3.821,3.098-6.919,6.919-6.919
			c3.821,0,6.919,3.098,6.919,6.919v13.838c0.001,1.835-0.728,3.596-2.025,4.894C330.073,256.935,328.313,257.663,326.477,257.662z"
			/>
	</g>
</g>
<g>
</g>
<g>
</g>
<g>
</g>
<g>
</g>
<g>
</g>
<g>
</g>
<g>
</g>
<g>
</g>
<g>
</g>
<g>
</g>
<g>
</g>
<g>
</g>
<g>
</g>
<g>
</g>
<g>
</g>
</svg>
