<?xml version="1.0" encoding="iso-8859-1"?>
<!-- Generator: Adobe Illustrator 19.0.0, SVG Export Plug-In . SVG Version: 6.00 Build 0)  -->
<svg version="1.1" id="Capa_1" xmlns="http://www.w3.org/2000/svg" xmlns:xlink="http://www.w3.org/1999/xlink" x="0px" y="0px"
	 viewBox="0 0 512 512" style="enable-background:new 0 0 512 512;" xml:space="preserve">
<g>
	<path style="fill:#F0F3F4;" d="M350.2,173.388V79.637L212.167,0l-69.258,39.991V332.8l-16.605,9.617l-0.208,0.069l-4.221,2.491
		l-0.415,0.277l-0.069,0.138h-0.069c-0.138,0.069-0.208,0.069-0.346,0.138l-0.277,0.138l-2.214,1.315l-26.638,15.429l-0.069,0.069
		c-7.126,2.214-11.693,9.548-11.693,20.826l61.302,35.425l35.909,20.688l25.462,14.668l0.069,0.069l40.545,23.455L303.013,512h0.069
		l34.595-19.996c0.381-1.107,0.682-2.24,0.899-3.39l0.069,0.069l23.732,13.699l0.277-0.484l69.258-39.991V220.575L350.2,173.388z"/>
	<g>
		<polygon style="fill:#C9CED1;" points="280.944,119.628 280.944,178.024 250.224,195.736 250.224,395.97 232.304,426.621 
			142.911,374.383 142.911,39.991 		"/>
		<polygon style="fill:#C9CED1;" points="431.914,220.575 362.656,260.566 280.944,213.379 265.584,204.592 250.224,195.736 
			280.944,178.024 319.482,155.745 319.551,155.745 350.202,173.388 		"/>
	</g>
	<g>
		<polygon style="fill:#A5B4B4;" points="431.914,220.575 431.914,461.907 362.656,501.898 362.656,260.566 		"/>
		<polygon style="fill:#A5B4B4;" points="350.202,79.637 280.944,119.628 142.911,39.991 212.17,0 		"/>
	</g>
	<polygon style="fill:#919D9E;" points="350.202,79.637 350.202,173.388 319.551,155.745 319.482,155.745 280.944,178.024 
		280.944,119.628 	"/>
	<path style="fill:#53BDAD;" d="M304.811,501.345c0.065,3.632-0.545,7.245-1.799,10.655l-59.641-34.387l-40.545-23.455l-0.069-0.069
		c-0.277-0.761-0.692-1.661-1.038-2.422l-0.069-0.069c-0.346-0.83-0.692-1.661-0.969-2.491v-0.069l-0.069-0.069
		c-0.415-1.176-0.83-2.422-1.176-3.529c-0.365-1.182-0.665-2.383-0.899-3.598l-0.208-0.969c-0.069-0.346-0.138-0.761-0.208-1.107
		c-0.208-1.245-0.346-2.422-0.484-3.667c-0.069-0.83-0.069-1.73-0.069-2.491c-0.004-1.156,0.065-2.312,0.208-3.459
		c0-0.138,0.069-0.415,0.069-0.623c0.165-1.171,0.42-2.327,0.761-3.459l0.415-1.453c0.087-0.095,0.136-0.218,0.138-0.346
		l0.623-1.245c0.277-0.553,0.623-1.107,0.899-1.591v-0.138c0.346-0.484,0.692-0.899,1.107-1.384
		c0.171-0.241,0.382-0.451,0.623-0.623c0.19-0.203,0.398-0.389,0.623-0.554c0.553-0.461,1.107-0.922,1.661-1.383
		c0.33-0.122,0.653-0.26,0.969-0.415l0.484-0.277c0.208-0.069,0.346-0.138,0.554-0.208h0.069c1.39-0.55,2.865-0.855,4.359-0.899
		c2.012-0.076,4.022,0.181,5.95,0.761c2.087,0.621,4.086,1.505,5.95,2.629c4.915,2.897,9.235,6.7,12.731,11.209v0.069h0.069
		c5.084,6.391,8.847,13.729,11.07,21.587c1.409-2.48,3.53-4.481,6.089-5.743l0.484-0.277c0.788-0.423,1.624-0.749,2.491-0.969
		c6.303-1.241,12.841,0.052,18.197,3.598c2.757,1.641,5.352,3.54,7.749,5.674c0.899,0.761,1.661,1.522,2.491,2.283
		C296.591,468.282,303.874,484.328,304.811,501.345z"/>
	<path style="fill:#00AD97;" d="M339.475,481.28c0.07,3.655-0.54,7.292-1.799,10.724L303.082,512h-0.069
		c1.254-3.41,1.864-7.023,1.799-10.655c-0.937-17.017-8.22-33.064-20.411-44.973c-0.831-0.761-1.591-1.522-2.491-2.283
		c-2.397-2.133-4.992-4.033-7.749-5.674c-5.356-3.546-11.894-4.839-18.197-3.598l-0.484-0.208l25.531-14.668l4.566-2.698
		l2.076-1.176c6.979-3.002,15.023-2.109,21.172,2.352c2.757,1.641,5.352,3.54,7.749,5.674c0.899,0.761,1.661,1.522,2.491,2.283
		C331.242,448.267,338.523,464.287,339.475,481.28z"/>
	<g>
		<path style="fill:#53BDAD;" d="M206.217,375.421l-30.789,17.782l-0.484,0.277l-0.277,0.138c-0.069,0-0.069,0.069-0.138,0.069
			c-0.221,0.088-0.431,0.205-0.623,0.346c-0.623,0.415-1.245,0.969-1.868,1.453c-0.138,0.138-0.277,0.208-0.415,0.346
			c-2.72-19.457-13.752-36.775-30.236-47.464c-5.834-4.063-13.232-5.164-19.996-2.975l0.069-0.138l0.415-0.277l4.221-2.491
			l0.208-0.069l27.33-15.775l0.208-0.138c7.162-3.621,15.753-2.898,22.21,1.868C192.396,338.995,203.384,356.133,206.217,375.421z"
			/>
		<path style="fill:#53BDAD;" d="M245.793,395.485c-1.526,0.026-3.031,0.356-4.428,0.969c-0.509,0.174-0.997,0.406-1.453,0.692
			c-0.189,0.058-0.373,0.127-0.553,0.208v0.069l-0.138,0.069l-0.554,0.415L210.3,414.236c-4.241-7.676-10.359-14.15-17.782-18.819
			c-0.969-0.553-2.007-1.038-2.975-1.522c-1.836-0.809-3.765-1.39-5.743-1.73c-2.558-0.465-5.195-0.201-7.611,0.761
			c-0.242,0.123-0.497,0.216-0.761,0.277l30.789-17.781l2.145-1.246l0.899-0.484l0.069-0.069c0.488-0.272,0.997-0.503,1.522-0.692
			c2.415-0.962,5.053-1.226,7.611-0.761c1.978,0.339,3.906,0.92,5.743,1.73c0.969,0.484,2.006,0.969,2.975,1.522
			C235.008,380.397,241.419,387.308,245.793,395.485z"/>
	</g>
	<path style="fill:#00AD97;" d="M281.01,429.942L255.48,444.61l-2.006,1.176l-0.484,0.277c-2.559,1.262-4.68,3.262-6.089,5.743
		c-2.223-7.858-5.986-15.196-11.07-21.587h-0.069v-0.069c-3.496-4.509-7.816-8.312-12.731-11.209
		c-1.864-1.125-3.864-2.008-5.95-2.629c-1.928-0.58-3.938-0.837-5.95-0.761c-1.494,0.045-2.969,0.349-4.359,0.899h-0.069
		l-0.069-0.069l3.667-2.145l28.368-16.329l0.554-0.415l0.138-0.069v-0.069c0.18-0.081,0.365-0.15,0.553-0.208
		c0.471-0.259,0.956-0.49,1.453-0.692c1.423-0.518,2.916-0.821,4.428-0.899c2.012-0.076,4.022,0.181,5.95,0.761
		c2.087,0.621,4.086,1.505,5.95,2.629C268.918,406.161,277.189,417.156,281.01,429.942z"/>
	<path style="fill:#91D4C5;" d="M210.299,414.236l-3.667,2.145l-0.484,0.277l-0.484,0.277c-0.316,0.155-0.639,0.293-0.969,0.415
		c-0.294,0.21-0.571,0.441-0.83,0.692c-0.331,0.159-0.634,0.369-0.899,0.623c-0.22,0.173-0.407,0.384-0.554,0.623
		c-0.225,0.19-0.433,0.398-0.623,0.623c-0.415,0.484-0.761,0.899-1.107,1.384v0.138c-0.363,0.481-0.686,0.99-0.969,1.522
		c-0.226,0.42-0.411,0.86-0.554,1.315c-0.003,0.128-0.052,0.251-0.138,0.346c-0.203,0.446-0.365,0.909-0.484,1.384
		c-0.341,1.132-0.596,2.289-0.761,3.459c0,0.208-0.069,0.484-0.069,0.623c-0.142,1.148-0.212,2.303-0.208,3.459
		c0,0.761,0,1.661,0.069,2.491c0.117,1.254,0.302,2.502,0.554,3.736c0.012,0.35,0.058,0.697,0.138,1.038
		c0.069,0.277,0.138,0.623,0.208,0.969c0.258,1.239,0.581,2.463,0.969,3.667c0.346,1.107,0.761,2.352,1.176,3.529l0.069,0.069v0.069
		c0.277,0.83,0.623,1.661,0.969,2.491l0.069,0.069c0.346,0.761,0.761,1.661,1.038,2.422l-25.462-14.668l-35.909-20.688
		l-61.302-35.425c0-11.278,4.566-18.612,11.693-20.826l0.069-0.069c6.501-1.609,13.38-0.349,18.889,3.459
		c-0.692-7.169,2.21-14.216,7.749-18.819v-0.069l2.214-1.315l0.277-0.138c0.138-0.069,0.208-0.069,0.346-0.138h0.069
		c6.764-2.189,14.162-1.088,19.996,2.975c16.484,10.689,27.516,28.007,30.236,47.464c0.138-0.138,0.277-0.208,0.415-0.346
		c0.623-0.484,1.245-1.038,1.868-1.453c0.192-0.141,0.401-0.258,0.623-0.346c0.069,0,0.069-0.069,0.138-0.069l0.277-0.138
		l0.484-0.277c0.264-0.061,0.52-0.154,0.761-0.277c2.415-0.962,5.053-1.226,7.611-0.761c1.978,0.339,3.906,0.92,5.743,1.73
		c0.969,0.484,2.006,0.969,2.975,1.522C199.941,400.085,206.058,406.56,210.299,414.236z"/>
	<path style="fill:#53BDAD;" d="M118.485,346.984v0.069c-5.539,4.604-8.441,11.65-7.749,18.819
		c-5.509-3.808-12.388-5.068-18.889-3.459L118.485,346.984z"/>
	<g>
		<path style="fill:#C9CED1;" d="M275.796,392.541c-1.835,0.001-3.596-0.728-4.894-2.025c-1.298-1.298-2.026-3.058-2.025-4.894
			v-13.838c0-3.821,3.098-6.919,6.919-6.919c3.821,0,6.919,3.098,6.919,6.919v13.838c0.001,1.835-0.728,3.596-2.025,4.894
			C279.392,391.813,277.631,392.542,275.796,392.541z M275.796,351.027c-1.835,0.001-3.596-0.728-4.894-2.025
			c-1.298-1.298-2.026-3.058-2.025-4.894V330.27c0-3.821,3.098-6.919,6.919-6.919c3.821,0,6.919,3.098,6.919,6.919v13.838
			c0.001,1.835-0.728,3.596-2.025,4.894C279.392,350.299,277.631,351.028,275.796,351.027z M275.796,309.514
			c-1.835,0.001-3.596-0.728-4.894-2.025c-1.298-1.298-2.026-3.058-2.025-4.894v-13.838c0-3.821,3.098-6.919,6.919-6.919
			c3.821,0,6.919,3.098,6.919,6.919v13.838c0.001,1.835-0.728,3.596-2.025,4.894C279.392,308.786,277.631,309.515,275.796,309.514z
			 M275.796,268c-1.835,0.001-3.596-0.728-4.894-2.025c-1.298-1.298-2.026-3.058-2.025-4.894v-13.838
			c0-3.821,3.098-6.919,6.919-6.919c3.821,0,6.919,3.098,6.919,6.919v13.838c0.001,1.835-0.728,3.596-2.025,4.894
			C279.392,267.272,277.631,268.001,275.796,268z"/>
		<path style="fill:#C9CED1;" d="M306.451,410.237c-1.835,0.001-3.596-0.728-4.894-2.025c-1.298-1.298-2.026-3.058-2.025-4.894
			V389.48c0-3.821,3.098-6.919,6.919-6.919s6.919,3.098,6.919,6.919v13.838c0.001,1.835-0.728,3.596-2.025,4.894
			C310.047,409.509,308.286,410.238,306.451,410.237z M306.451,368.723c-1.835,0.001-3.596-0.728-4.894-2.025
			c-1.298-1.298-2.026-3.058-2.025-4.894v-13.838c0-3.821,3.098-6.919,6.919-6.919s6.919,3.098,6.919,6.919v13.838
			c0.001,1.835-0.728,3.596-2.025,4.894C310.047,367.995,308.286,368.724,306.451,368.723z M306.451,327.21
			c-1.835,0.001-3.596-0.728-4.894-2.025c-1.298-1.298-2.026-3.058-2.025-4.894v-13.838c0-3.821,3.098-6.919,6.919-6.919
			s6.919,3.098,6.919,6.919v13.838c0.001,1.835-0.728,3.596-2.025,4.894C310.047,326.482,308.286,327.211,306.451,327.21z
			 M306.451,285.696c-1.835,0.001-3.596-0.728-4.894-2.025c-1.298-1.298-2.026-3.058-2.025-4.894v-13.838
			c0-3.821,3.098-6.919,6.919-6.919s6.919,3.098,6.919,6.919v13.838c0.001,1.835-0.728,3.596-2.025,4.894
			C310.047,284.968,308.286,285.697,306.451,285.696z"/>
		<path style="fill:#C9CED1;" d="M337.106,427.939c-1.835,0.001-3.596-0.728-4.894-2.025c-1.298-1.298-2.026-3.058-2.025-4.894
			v-13.838c0-3.821,3.098-6.919,6.919-6.919c3.821,0,6.919,3.098,6.919,6.919v13.838c0.001,1.835-0.728,3.596-2.025,4.894
			C340.702,427.212,338.942,427.94,337.106,427.939z M337.106,386.426c-1.835,0.001-3.596-0.728-4.894-2.025
			c-1.298-1.298-2.026-3.058-2.025-4.894v-13.838c0-3.821,3.098-6.919,6.919-6.919c3.821,0,6.919,3.098,6.919,6.919v13.838
			c0.001,1.835-0.728,3.596-2.025,4.894C340.702,385.698,338.942,386.427,337.106,386.426z M337.106,344.912
			c-1.835,0.001-3.596-0.728-4.894-2.025c-1.298-1.298-2.026-3.058-2.025-4.894v-13.838c0-3.821,3.098-6.919,6.919-6.919
			c3.821,0,6.919,3.098,6.919,6.919v13.838c0.001,1.835-0.728,3.596-2.025,4.894C340.702,344.185,338.942,344.913,337.106,344.912z
			 M337.106,303.399c-1.835,0.001-3.596-0.728-4.894-2.025c-1.298-1.298-2.026-3.058-2.025-4.894v-13.838
			c0-3.821,3.098-6.919,6.919-6.919c3.821,0,6.919,3.098,6.919,6.919v13.838c0.001,1.835-0.728,3.596-2.025,4.894
			C340.702,302.671,338.942,303.4,337.106,303.399z"/>
	</g>
	<g>
		<path style="fill:#F0F3F4;" d="M163.39,316.899c-1.835,0.001-3.596-0.728-4.894-2.025c-1.298-1.298-2.026-3.058-2.025-4.894
			v-13.838c0-3.821,3.098-6.919,6.919-6.919s6.919,3.098,6.919,6.919v13.838c0.001,1.835-0.728,3.596-2.025,4.894
			C166.986,316.171,165.226,316.9,163.39,316.899z M163.39,275.385c-1.835,0.001-3.596-0.728-4.894-2.025s-2.026-3.058-2.025-4.894
			v-13.838c0-3.821,3.098-6.919,6.919-6.919s6.919,3.098,6.919,6.919v13.838c0.001,1.835-0.728,3.596-2.025,4.894
			C166.986,274.658,165.226,275.386,163.39,275.385z M163.39,233.872c-1.835,0.001-3.596-0.728-4.894-2.025
			c-1.298-1.298-2.026-3.058-2.025-4.894v-13.838c0-3.821,3.098-6.919,6.919-6.919s6.919,3.098,6.919,6.919v13.838
			c0.001,1.835-0.728,3.596-2.025,4.894C166.986,233.144,165.226,233.873,163.39,233.872z M163.39,192.358
			c-1.835,0.001-3.596-0.728-4.894-2.025s-2.026-3.058-2.025-4.894v-13.838c0-3.821,3.098-6.919,6.919-6.919
			s6.919,3.098,6.919,6.919v13.838c0.001,1.835-0.728,3.596-2.025,4.894C166.986,191.631,165.226,192.359,163.39,192.358z
			 M163.39,150.845c-1.835,0.001-3.596-0.728-4.894-2.025c-1.298-1.298-2.026-3.058-2.025-4.894v-13.838
			c0-3.821,3.098-6.919,6.919-6.919s6.919,3.098,6.919,6.919v13.838c0.001,1.835-0.728,3.596-2.025,4.894
			C166.986,150.117,165.226,150.846,163.39,150.845z M163.39,109.331c-1.835,0.001-3.596-0.728-4.894-2.025
			c-1.298-1.298-2.026-3.058-2.025-4.894V88.574c0-3.821,3.098-6.919,6.919-6.919s6.919,3.098,6.919,6.919v13.838
			c0.001,1.835-0.728,3.596-2.025,4.894C166.986,108.604,165.226,109.332,163.39,109.331z"/>
		<path style="fill:#F0F3F4;" d="M194.046,334.595c-1.835,0.001-3.596-0.728-4.894-2.025s-2.026-3.058-2.025-4.894v-13.838
			c0-3.821,3.098-6.919,6.919-6.919c3.821,0,6.919,3.098,6.919,6.919v13.838c0.001,1.835-0.728,3.596-2.025,4.894
			C197.641,333.867,195.881,334.596,194.046,334.595z M194.046,293.081c-1.835,0.001-3.596-0.728-4.894-2.025
			c-1.298-1.298-2.026-3.058-2.025-4.894v-13.838c0-3.821,3.098-6.919,6.919-6.919c3.821,0,6.919,3.098,6.919,6.919v13.838
			c0.001,1.835-0.728,3.596-2.025,4.894C197.641,292.354,195.881,293.082,194.046,293.081z M194.046,251.568
			c-1.835,0.001-3.596-0.728-4.894-2.025c-1.298-1.298-2.026-3.058-2.025-4.894v-13.838c0-3.821,3.098-6.919,6.919-6.919
			c3.821,0,6.919,3.098,6.919,6.919v13.838c0.001,1.835-0.728,3.596-2.025,4.894C197.641,250.84,195.881,251.569,194.046,251.568z
			 M194.046,210.054c-1.835,0.001-3.596-0.728-4.894-2.025c-1.298-1.298-2.026-3.058-2.025-4.894v-13.838
			c0-3.821,3.098-6.919,6.919-6.919c3.821,0,6.919,3.098,6.919,6.919v13.838c0.001,1.835-0.728,3.596-2.025,4.894
			C197.641,209.327,195.881,210.055,194.046,210.054z M194.046,168.541c-1.835,0.001-3.596-0.728-4.894-2.025
			c-1.298-1.298-2.026-3.058-2.025-4.894v-13.838c0-3.821,3.098-6.919,6.919-6.919c3.821,0,6.919,3.098,6.919,6.919v13.838
			c0.001,1.835-0.728,3.596-2.025,4.894C197.641,167.813,195.881,168.542,194.046,168.541z M194.046,127.027
			c-1.835,0.001-3.596-0.728-4.894-2.025c-1.298-1.298-2.026-3.058-2.025-4.894V106.27c0-3.821,3.098-6.919,6.919-6.919
			c3.821,0,6.919,3.098,6.919,6.919v13.838c0.001,1.835-0.728,3.596-2.025,4.894C197.641,126.299,195.881,127.028,194.046,127.027z"
			/>
		<path style="fill:#F0F3F4;" d="M224.701,352.298c-1.835,0.001-3.596-0.728-4.894-2.025c-1.298-1.298-2.026-3.058-2.025-4.894
			v-13.838c0-3.821,3.098-6.919,6.919-6.919c3.821,0,6.919,3.098,6.919,6.919v13.838c0.001,1.835-0.728,3.596-2.025,4.894
			C228.297,351.57,226.536,352.299,224.701,352.298z M224.701,310.784c-1.835,0.001-3.596-0.728-4.894-2.025
			s-2.026-3.058-2.025-4.894v-13.838c0-3.821,3.098-6.919,6.919-6.919c3.821,0,6.919,3.098,6.919,6.919v13.838
			c0.001,1.835-0.728,3.596-2.025,4.894C228.297,310.056,226.536,310.785,224.701,310.784z M224.701,269.27
			c-1.835,0.001-3.596-0.728-4.894-2.025s-2.026-3.058-2.025-4.894v-13.838c0-3.821,3.098-6.919,6.919-6.919
			c3.821,0,6.919,3.098,6.919,6.919v13.838c0.001,1.835-0.728,3.596-2.025,4.894C228.297,268.543,226.536,269.272,224.701,269.27z
			 M224.701,227.757c-1.835,0.001-3.596-0.728-4.894-2.025c-1.298-1.298-2.026-3.058-2.025-4.894V207
			c0-3.821,3.098-6.919,6.919-6.919c3.821,0,6.919,3.098,6.919,6.919v13.838c0.001,1.835-0.728,3.596-2.025,4.894
			C228.297,227.029,226.536,227.758,224.701,227.757z M224.701,186.243c-1.835,0.001-3.596-0.728-4.894-2.025
			c-1.298-1.298-2.026-3.058-2.025-4.894v-13.838c0-3.821,3.098-6.919,6.919-6.919c3.821,0,6.919,3.098,6.919,6.919v13.838
			c0.001,1.835-0.728,3.596-2.025,4.894C228.297,185.516,226.536,186.245,224.701,186.243z M224.701,144.73
			c-1.835,0.001-3.596-0.728-4.894-2.025c-1.298-1.298-2.026-3.058-2.025-4.894v-13.838c0-3.821,3.098-6.919,6.919-6.919
			c3.821,0,6.919,3.098,6.919,6.919v13.838c0.001,1.835-0.728,3.596-2.025,4.894C228.297,144.002,226.536,144.731,224.701,144.73z"
			/>
		<path style="fill:#F0F3F4;" d="M255.356,162.426c-1.835,0.001-3.596-0.728-4.894-2.025s-2.026-3.058-2.025-4.894v-13.838
			c0-3.821,3.098-6.919,6.919-6.919c3.821,0,6.919,3.098,6.919,6.919v13.838c0.001,1.835-0.728,3.596-2.025,4.894
			C258.952,161.698,257.192,162.427,255.356,162.426z"/>
	</g>
</g>
<g>
</g>
<g>
</g>
<g>
</g>
<g>
</g>
<g>
</g>
<g>
</g>
<g>
</g>
<g>
</g>
<g>
</g>
<g>
</g>
<g>
</g>
<g>
</g>
<g>
</g>
<g>
</g>
<g>
</g>
</svg>
