<svg height="512" viewBox="0 0 512 512" width="512" xmlns="http://www.w3.org/2000/svg"><g><g fill="#57a4ff"><path d="m16 248h24v224h-24z"/><path d="m472 248h24v224h-24z"/><path d="m304 248h24v224h-24z"/><path d="m288 60v100h-240v-100a19.994 19.994 0 0 1 20-20h200a19.994 19.994 0 0 1 20 20z"/></g><g fill="#004fac"><path d="m496 208h-24v-104a8 8 0 0 0 -8-8h-96a8 8 0 0 0 -8 8v104h-145.75l-4-16h57.75a28.031 28.031 0 0 0 28-28v-104a28.031 28.031 0 0 0 -28-28h-200a28.031 28.031 0 0 0 -28 28v104a28.031 28.031 0 0 0 28 28h57.75l-4 16h-105.75a8 8 0 0 0 -8 8v256a8 8 0 0 0 8 8h24a8 8 0 0 0 8-8v-152h248v152a8 8 0 0 0 8 8h24a8 8 0 0 0 8-8v-24h128v24a8 8 0 0 0 8 8h24a8 8 0 0 0 8-8v-256a8 8 0 0 0 -8-8zm-72-96h32v96h-32zm-48 0h32v96h-32zm-320-52a12.01 12.01 0 0 1 12-12h200a12.01 12.01 0 0 1 12 12v92h-224zm12 116a12.014 12.014 0 0 1 -11.3-8h222.6a12.014 12.014 0 0 1 -11.3 8zm129.75 32h-59.5l4-16h51.5zm-165.75 256h-8v-208h8zm264-160h-248v-48h248zm24 160h-8v-208h8zm144-32h-128v-48h128zm0-64h-128v-48h128zm0-64h-128v-48h128zm24 160h-8v-208h8zm0-224h-464v-16h464z"/><path d="m376 288h48a8 8 0 0 0 0-16h-48a8 8 0 0 0 0 16z"/><path d="m424 336h-48a8 8 0 0 0 0 16h48a8 8 0 0 0 0-16z"/><path d="m424 400h-48a8 8 0 0 0 0 16h48a8 8 0 0 0 0-16z"/><path d="m192 272h-48a8 8 0 0 0 0 16h48a8 8 0 0 0 0-16z"/></g></g></svg>