<?xml version="1.0" encoding="UTF-8"?>
<svg width="21px" height="21px" viewBox="0 0 21 21" version="1.1" xmlns="http://www.w3.org/2000/svg" xmlns:xlink="http://www.w3.org/1999/xlink">
    <title>Artboard</title>
    <g id="Artboard" stroke="none" stroke-width="1" fill="none" fill-rule="evenodd">
        <g id="Group" transform="translate(3.281250, 1.312500)">
            <path d="M4.03601462,0.00169058322 C3.0643205,-0.0405569871 2.1948229,0.714447937 2.09300822,1.65719841 L2.08470511,1.76677582 L2.08519058,6.54815974 L1.98816563,6.61311273 C1.68375827,6.81689709 1.41105696,7.03700767 1.19267793,7.27956985 C0.724318263,7.777202 0.47859958,8.47522727 0.359193037,9.24355048 L0.320985193,9.52082583 L0.00274282658,13.9271848 C-0.0349256799,14.5047686 0.319060111,15.6042567 0.838736867,16.7484391 L1.01778919,17.130834 C1.29464284,17.7049455 1.60664247,18.2769747 1.92554267,18.7872703 C1.98048821,18.8696886 2.10604092,18.9347901 2.20889538,18.9347901 L2.22858218,18.9330183 L2.29060842,18.9171935 L2.40528074,18.8797485 L2.43574,18.8572062 C2.5274559,18.7742084 2.56451888,18.6553047 2.53800085,18.5447473 L2.51940208,18.490369 L2.48995847,18.438611 C2.08768207,17.8094094 1.69724157,17.0646481 1.3815271,16.3544181 L1.2301882,16.0028756 L1.09305058,15.6612575 C0.834141252,14.9907252 0.67092133,14.4047546 0.666280933,14.0534367 L0.668460969,13.9705827 L0.986877513,9.58625943 C1.03024861,9.02243516 1.24569464,8.28488656 1.59235542,7.84355708 L1.70752021,7.7124226 L2.08378485,7.32037832 L2.08470511,11.2437395 C2.08470511,12.4164164 2.54756282,13.0697566 3.27824394,13.3688927 L3.37952402,13.407504 L3.55358103,13.4691523 L3.3551177,14.6100826 C3.32849798,14.7698009 3.42127607,14.927469 3.53626401,14.9783263 L3.58023575,14.9921865 L3.67818863,14.9921865 C3.82034214,14.9921865 3.96042926,14.8995214 4.01032838,14.8002022 L4.02593509,14.7574802 L4.95332528,9.38263473 L4.95441038,9.28741409 C4.98613917,8.97012614 5.11792145,8.6833059 5.34633836,8.4834411 C5.59531708,8.26558472 5.89992858,8.156237 6.22223136,8.18554616 C6.53951931,8.21727495 6.82633956,8.34905723 7.02620436,8.57747414 C7.21813785,8.7968267 7.32797817,9.06145254 7.329385,9.32271986 L7.3247783,9.42044269 L7.0061935,14.6398833 C6.99792501,14.7473737 7.0402339,14.8436969 7.11919428,14.9099697 L7.17085728,14.9459763 L7.22838187,14.9938069 C8.16380762,16.0926797 8.65935907,17.2618247 8.87819251,18.4461401 L8.91602082,18.6683635 C8.92790604,18.7991009 9.04098822,18.9079261 9.18268075,18.9304955 L9.23421824,18.9342173 L9.3039375,18.9215941 L9.3258025,18.9202072 L9.35496824,18.9224048 C9.4680549,18.8809926 9.55485172,18.7789447 9.58016614,18.6641245 L9.58753688,18.6058717 L9.58367786,18.5468198 C9.41349598,17.3215102 8.89842271,15.9853472 7.93192709,14.7837141 L7.75666131,14.5731076 L7.68294258,14.4945725 L7.74269339,13.5224362 L9.44709941,13.5227039 C9.83708251,13.5134364 10.3187497,13.36286 10.7273538,12.9706067 C11.1071228,12.6108256 11.311846,12.0945675 11.3410999,11.4179412 L11.3447576,11.2454413 L11.3430502,11.0260798 L11.5370727,11.0027189 C11.9972259,10.9473152 12.3817175,10.7910936 12.6645513,10.4948473 C12.9078691,10.271806 13.0313012,9.94444268 13.0129249,9.51810729 C13.0445249,9.32850716 12.9556165,8.97880081 12.7131719,8.68427016 L12.6762224,8.6387647 L12.6391743,8.59718963 L12.4666255,8.41305196 L12.6734559,8.2684803 C13.1520356,7.93395964 13.4029635,7.40614026 13.3533974,6.82772397 C13.2943256,6.04010031 12.7578664,5.47007268 12.0459652,5.39680599 L11.9431042,5.38974879 L11.3442611,5.38876771 L11.3449328,1.78236939 C11.3838036,0.830036231 10.5983613,0.105480433 9.57634962,0.0100887021 L9.45740877,0.00189694931 L4.03601462,0.00169058322 Z M3.8244729,0.722319475 L3.92189779,0.715107227 L9.44332043,0.715801156 C10.0958195,0.746872542 10.6505534,1.14816572 10.6798704,1.72351242 L10.6800707,11.292716 C10.6800707,12.3642035 10.1685112,12.8422534 9.5399486,12.8802307 L9.45733107,12.8827011 L7.78152198,12.8821056 L7.99007105,9.47109029 C8.0116521,8.97472597 7.8429122,8.51350357 7.50582048,8.13146628 C7.1795273,7.76166735 6.72175908,7.54147504 6.23051071,7.5189588 C5.74461837,7.47670729 5.28626206,7.63880891 4.9003305,7.97933676 C4.57621165,8.26532398 4.37641703,8.64225975 4.30461394,9.09492902 L4.28542503,9.24860286 L3.65001478,12.9099829 L3.37443309,12.7381434 C3.00762719,12.5094209 2.78103965,12.0820878 2.75245822,11.4347959 L2.7493854,11.292716 L2.74963288,1.82986281 C2.77717388,1.25150163 3.24570729,0.787986761 3.8244729,0.722319475 Z M11.3448943,8.68158998 L11.6259717,8.76522309 C12.1078295,8.90859731 12.3150195,9.1685954 12.3421597,9.44183303 L12.3452697,9.50507583 L12.3452697,9.5785405 C12.3452697,9.801435 12.2924306,9.94233922 12.1832772,10.0514926 C12.0735883,10.1611815 11.9182116,10.2383089 11.72514,10.2884696 L11.6048375,10.3153749 L11.3453404,10.364817 L11.3448943,8.68158998 Z M11.8817426,6.02949762 C12.4171117,6.02949762 12.6519074,6.38573944 12.7109046,6.85771664 C12.7645069,7.28653489 12.5198782,7.61442541 12.0914046,7.81711242 L11.9968166,7.85862012 L11.3442908,7.98511089 L11.3442908,6.02933053 L11.8817426,6.02949762 Z" id="Combined-Shape" fill="#303030" fill-rule="nonzero"></path>
            <g transform="translate(10.363473, 5.048220)"></g>
            <path d="M6.49433404,5.17066073 L4.58425281,5.17066073 C4.29039416,5.17066073 4.04551195,4.92577852 4.04551195,4.63191987 L4.04551195,2.37900354 C4.04551195,2.08514489 4.29039416,1.84026268 4.58425281,1.84026268 L6.49433404,1.84026268 C6.78819269,1.84026268 7.0330749,2.08514489 7.0330749,2.37900354 L7.0330749,4.63191987 C7.0330749,4.92577852 6.78819269,5.17066073 6.49433404,5.17066073 Z M5.12299367,4.06869079 L5.93110496,4.06869079 L5.93110496,2.9177444 L5.12299367,2.9177444 L5.12299367,4.06869079 Z" id="Shape" fill="#D8232A" fill-rule="nonzero"></path>
            <polygon id="Path-2" fill="#303030" fill-rule="nonzero" points="9.12612749 13.174401 9.76999689 13.3012721 9.09383241 16.7327998 8.44996302 16.6059287"></polygon>
        </g>
    </g>
</svg>